<svg width="13" height="13" viewBox="0 0 13 13" fill="none" xmlns="http://www.w3.org/2000/svg">
<path d="M10.8077 3.47698C11.0776 3.20719 11.2292 2.84124 11.2292 2.45964C11.2293 2.07805 11.0777 1.71207 10.8079 1.4422C10.5382 1.17234 10.1722 1.02071 9.79061 1.02066C9.40902 1.02061 9.04303 1.17215 8.77317 1.44195L1.96115 8.2555C1.84264 8.37366 1.755 8.51915 1.70594 8.67915L1.03168 10.9005C1.01849 10.9446 1.01749 10.9915 1.0288 11.0362C1.0401 11.0808 1.06329 11.1216 1.09589 11.1542C1.12849 11.1867 1.1693 11.2098 1.21398 11.2211C1.25866 11.2323 1.30555 11.2312 1.34967 11.218L3.57151 10.5442C3.73136 10.4956 3.87683 10.4085 3.99516 10.2905L10.8077 3.47698Z" stroke="#364153" stroke-width="1.02083" stroke-linecap="round" stroke-linejoin="round"/>
<path d="M7.65625 2.55209L9.69792 4.59376" stroke="#364153" stroke-width="1.02083" stroke-linecap="round" stroke-linejoin="round"/>
</svg>
