<svg width="13" height="13" viewBox="0 0 13 13" fill="none" xmlns="http://www.w3.org/2000/svg">
<path d="M5.104 5.61459V8.67709" stroke="#FB2C36" stroke-width="1.02083" stroke-linecap="round" stroke-linejoin="round"/>
<path d="M7.146 5.61459V8.67709" stroke="#FB2C36" stroke-width="1.02083" stroke-linecap="round" stroke-linejoin="round"/>
<path d="M9.69808 3.0625V10.2083C9.69808 10.4791 9.59053 10.7387 9.39908 10.9302C9.20764 11.1216 8.94799 11.2292 8.67725 11.2292H3.57308C3.30234 11.2292 3.04268 11.1216 2.85124 10.9302C2.6598 10.7387 2.55225 10.4791 2.55225 10.2083V3.0625" stroke="#FB2C36" stroke-width="1.02083" stroke-linecap="round" stroke-linejoin="round"/>
<path d="M1.53125 3.0625H10.7188" stroke="#FB2C36" stroke-width="1.02083" stroke-linecap="round" stroke-linejoin="round"/>
<path d="M4.0835 3.06251V2.04168C4.0835 1.77094 4.19105 1.51128 4.38249 1.31984C4.57393 1.1284 4.83359 1.02084 5.10433 1.02084H7.146C7.41674 1.02084 7.67639 1.1284 7.86783 1.31984C8.05928 1.51128 8.16683 1.77094 8.16683 2.04168V3.06251" stroke="#FB2C36" stroke-width="1.02083" stroke-linecap="round" stroke-linejoin="round"/>
</svg>
