<svg width="13" height="13" viewBox="0 0 13 13" fill="none" xmlns="http://www.w3.org/2000/svg">
<g clip-path="url(#clip0_9_1036)">
<path d="M10.8077 3.47695C11.0776 3.20715 11.2292 2.84121 11.2292 2.45961C11.2293 2.07802 11.0777 1.71204 10.8079 1.44217C10.5382 1.17231 10.1722 1.02068 9.79061 1.02063C9.40902 1.02058 9.04303 1.17212 8.77317 1.44192L1.96115 8.25547C1.84264 8.37363 1.755 8.51912 1.70594 8.67912L1.03168 10.9004C1.01849 10.9446 1.01749 10.9915 1.0288 11.0361C1.0401 11.0808 1.06329 11.1216 1.09589 11.1541C1.12849 11.1867 1.1693 11.2098 1.21398 11.221C1.25866 11.2323 1.30555 11.2312 1.34967 11.2179L3.57151 10.5442C3.73136 10.4956 3.87683 10.4085 3.99516 10.2905L10.8077 3.47695Z" stroke="#364153" stroke-width="1.02083" stroke-linecap="round" stroke-linejoin="round"/>
<path d="M7.65625 2.55206L9.69792 4.59373" stroke="#364153" stroke-width="1.02083" stroke-linecap="round" stroke-linejoin="round"/>
</g>
<defs>
<clipPath id="clip0_9_1036">
<rect width="12.25" height="12.25" fill="white"/>
</clipPath>
</defs>
</svg>
