<svg width="14" height="14" viewBox="0 0 14 14" fill="none" xmlns="http://www.w3.org/2000/svg">
<path d="M6.99984 7.58332C7.322 7.58332 7.58317 7.32216 7.58317 6.99999C7.58317 6.67782 7.322 6.41666 6.99984 6.41666C6.67767 6.41666 6.4165 6.67782 6.4165 6.99999C6.4165 7.32216 6.67767 7.58332 6.99984 7.58332Z" stroke="black" stroke-width="1.16667" stroke-linecap="round" stroke-linejoin="round"/>
<path d="M6.99984 3.50001C7.322 3.50001 7.58317 3.23884 7.58317 2.91668C7.58317 2.59451 7.322 2.33334 6.99984 2.33334C6.67767 2.33334 6.4165 2.59451 6.4165 2.91668C6.4165 3.23884 6.67767 3.50001 6.99984 3.50001Z" stroke="black" stroke-width="1.16667" stroke-linecap="round" stroke-linejoin="round"/>
<path d="M6.99984 11.6667C7.322 11.6667 7.58317 11.4055 7.58317 11.0833C7.58317 10.7612 7.322 10.5 6.99984 10.5C6.67767 10.5 6.4165 10.7612 6.4165 11.0833C6.4165 11.4055 6.67767 11.6667 6.99984 11.6667Z" stroke="black" stroke-width="1.16667" stroke-linecap="round" stroke-linejoin="round"/>
</svg>
