<svg width="13" height="13" viewBox="0 0 13 13" fill="none" xmlns="http://www.w3.org/2000/svg">
<g clip-path="url(#clip0_9_1094)">
<path d="M5.104 5.61456V8.67706" stroke="#FB2C36" stroke-width="1.02083" stroke-linecap="round" stroke-linejoin="round"/>
<path d="M7.146 5.61456V8.67706" stroke="#FB2C36" stroke-width="1.02083" stroke-linecap="round" stroke-linejoin="round"/>
<path d="M9.69808 3.0625V10.2083C9.69808 10.4791 9.59053 10.7387 9.39908 10.9302C9.20764 11.1216 8.94799 11.2292 8.67725 11.2292H3.57308C3.30234 11.2292 3.04268 11.1216 2.85124 10.9302C2.6598 10.7387 2.55225 10.4791 2.55225 10.2083V3.0625" stroke="#FB2C36" stroke-width="1.02083" stroke-linecap="round" stroke-linejoin="round"/>
<path d="M1.53125 3.0625H10.7188" stroke="#FB2C36" stroke-width="1.02083" stroke-linecap="round" stroke-linejoin="round"/>
<path d="M4.0835 3.06248V2.04165C4.0835 1.7709 4.19105 1.51125 4.38249 1.31981C4.57393 1.12836 4.83359 1.02081 5.10433 1.02081H7.146C7.41674 1.02081 7.67639 1.12836 7.86783 1.31981C8.05928 1.51125 8.16683 1.7709 8.16683 2.04165V3.06248" stroke="#FB2C36" stroke-width="1.02083" stroke-linecap="round" stroke-linejoin="round"/>
</g>
<defs>
<clipPath id="clip0_9_1094">
<rect width="12.25" height="12.25" fill="white"/>
</clipPath>
</defs>
</svg>
