<svg width="14" height="14" viewBox="0 0 14 14" fill="none" xmlns="http://www.w3.org/2000/svg">
<path d="M6.99984 7.58335C7.322 7.58335 7.58317 7.32219 7.58317 7.00002C7.58317 6.67785 7.322 6.41669 6.99984 6.41669C6.67767 6.41669 6.4165 6.67785 6.4165 7.00002C6.4165 7.32219 6.67767 7.58335 6.99984 7.58335Z" stroke="white" stroke-width="1.16667" stroke-linecap="round" stroke-linejoin="round"/>
<path d="M6.99984 3.49998C7.322 3.49998 7.58317 3.23881 7.58317 2.91665C7.58317 2.59448 7.322 2.33331 6.99984 2.33331C6.67767 2.33331 6.4165 2.59448 6.4165 2.91665C6.4165 3.23881 6.67767 3.49998 6.99984 3.49998Z" stroke="white" stroke-width="1.16667" stroke-linecap="round" stroke-linejoin="round"/>
<path d="M6.99984 11.6667C7.322 11.6667 7.58317 11.4055 7.58317 11.0833C7.58317 10.7612 7.322 10.5 6.99984 10.5C6.67767 10.5 6.4165 10.7612 6.4165 11.0833C6.4165 11.4055 6.67767 11.6667 6.99984 11.6667Z" stroke="white" stroke-width="1.16667" stroke-linecap="round" stroke-linejoin="round"/>
</svg>
