<svg width="18" height="18" viewBox="0 0 18 18" fill="none" xmlns="http://www.w3.org/2000/svg">
<path d="M9.17727 1.88562C8.90384 1.61211 8.53297 1.45841 8.14623 1.45833H2.91665C2.52987 1.45833 2.15894 1.61197 1.88545 1.88546C1.61196 2.15895 1.45831 2.52989 1.45831 2.91666V8.14625C1.4584 8.53299 1.6121 8.90386 1.8856 9.17729L8.23227 15.524C8.56369 15.8533 9.01193 16.0381 9.47915 16.0381C9.94636 16.0381 10.3946 15.8533 10.726 15.524L15.5239 10.726C15.8533 10.3946 16.0381 9.94638 16.0381 9.47916C16.0381 9.01195 15.8533 8.5637 15.5239 8.23229L9.17727 1.88562Z" stroke="#1A1D2E" stroke-width="1.45833" stroke-linecap="round" stroke-linejoin="round"/>
<path d="M5.46877 5.83334C5.67012 5.83334 5.83335 5.67011 5.83335 5.46876C5.83335 5.2674 5.67012 5.10417 5.46877 5.10417C5.26742 5.10417 5.10419 5.2674 5.10419 5.46876C5.10419 5.67011 5.26742 5.83334 5.46877 5.83334Z" fill="#1A1D2E" stroke="#1A1D2E" stroke-width="1.45833" stroke-linecap="round" stroke-linejoin="round"/>
</svg>
