<svg width="18" height="18" viewBox="0 0 18 18" fill="none" xmlns="http://www.w3.org/2000/svg">
<path d="M13.125 15.3125C13.125 13.7654 12.5104 12.2817 11.4164 11.1877C10.3225 10.0937 8.83874 9.47916 7.29165 9.47916C5.74455 9.47916 4.26082 10.0937 3.16686 11.1877C2.07289 12.2817 1.45831 13.7654 1.45831 15.3125" stroke="#1A1D2E" stroke-width="1.45833" stroke-linecap="round" stroke-linejoin="round"/>
<path d="M7.29165 9.47917C9.30518 9.47917 10.9375 7.84687 10.9375 5.83333C10.9375 3.8198 9.30518 2.1875 7.29165 2.1875C5.27811 2.1875 3.64581 3.8198 3.64581 5.83333C3.64581 7.84687 5.27811 9.47917 7.29165 9.47917Z" stroke="#1A1D2E" stroke-width="1.45833" stroke-linecap="round" stroke-linejoin="round"/>
<path d="M16.0417 14.5834C16.0417 12.1261 14.5833 9.84377 13.125 8.75002C13.6044 8.39037 13.9877 7.9181 14.241 7.37501C14.4944 6.83191 14.61 6.23474 14.5775 5.63633C14.5451 5.03793 14.3656 4.45675 14.055 3.94423C13.7445 3.43171 13.3123 3.00365 12.7969 2.69794" stroke="#1A1D2E" stroke-width="1.45833" stroke-linecap="round" stroke-linejoin="round"/>
</svg>
