<svg width="13" height="13" viewBox="0 0 13 13" fill="none" xmlns="http://www.w3.org/2000/svg">
<g clip-path="url(#clip0_46_720)">
<path d="M7.65624 1.02087H3.06249C2.79175 1.02087 2.5321 1.12843 2.34065 1.31987C2.14921 1.51131 2.04166 1.77097 2.04166 2.04171V10.2084C2.04166 10.4791 2.14921 10.7388 2.34065 10.9302C2.5321 11.1217 2.79175 11.2292 3.06249 11.2292H9.18749C9.45823 11.2292 9.71788 11.1217 9.90933 10.9302C10.1008 10.7388 10.2083 10.4791 10.2083 10.2084V3.57296L7.65624 1.02087Z" stroke="#2B7FFF" stroke-width="1.02083" stroke-linecap="round" stroke-linejoin="round"/>
<path d="M7.14584 1.02087V3.06254C7.14584 3.33328 7.2534 3.59294 7.44484 3.78438C7.63628 3.97582 7.89594 4.08337 8.16668 4.08337H10.2083" stroke="#2B7FFF" stroke-width="1.02083" stroke-linecap="round" stroke-linejoin="round"/>
<path d="M5.10418 4.59375H4.08334" stroke="#2B7FFF" stroke-width="1.02083" stroke-linecap="round" stroke-linejoin="round"/>
<path d="M8.16668 6.63538H4.08334" stroke="#2B7FFF" stroke-width="1.02083" stroke-linecap="round" stroke-linejoin="round"/>
<path d="M8.16668 8.67712H4.08334" stroke="#2B7FFF" stroke-width="1.02083" stroke-linecap="round" stroke-linejoin="round"/>
</g>
<defs>
<clipPath id="clip0_46_720">
<rect width="12.25" height="12.25" fill="white"/>
</clipPath>
</defs>
</svg>
