<svg width="14" height="14" viewBox="0 0 14 14" fill="none" xmlns="http://www.w3.org/2000/svg">
<g clip-path="url(#clip0_46_767)">
<path d="M5.64142 2.41271C5.67356 2.07458 5.83061 1.76057 6.08189 1.53204C6.33317 1.30351 6.66063 1.17688 7.00029 1.17688C7.33995 1.17688 7.66741 1.30351 7.91869 1.53204C8.16997 1.76057 8.32703 2.07458 8.35917 2.41271C8.37848 2.63115 8.45014 2.84171 8.56808 3.02658C8.68601 3.21145 8.84675 3.36519 9.03669 3.47478C9.22662 3.58437 9.44017 3.64658 9.65924 3.65616C9.87832 3.66574 10.0965 3.62239 10.2952 3.5298C10.6039 3.38967 10.9536 3.36939 11.2764 3.47291C11.5992 3.57644 11.8719 3.79635 12.0415 4.08986C12.211 4.38337 12.2653 4.72946 12.1938 5.0608C12.1222 5.39213 11.93 5.68499 11.6544 5.88238C11.475 6.00829 11.3285 6.17557 11.2274 6.37006C11.1262 6.56456 11.0734 6.78054 11.0734 6.99976C11.0734 7.21897 11.1262 7.43496 11.2274 7.62945C11.3285 7.82394 11.475 7.99122 11.6544 8.11713C11.93 8.31452 12.1222 8.60738 12.1938 8.93872C12.2653 9.27005 12.211 9.61615 12.0415 9.90965C11.8719 10.2032 11.5992 10.4231 11.2764 10.5266C10.9536 10.6301 10.6039 10.6098 10.2952 10.4697C10.0965 10.3771 9.87832 10.3338 9.65924 10.3434C9.44017 10.3529 9.22662 10.4151 9.03669 10.5247C8.84675 10.6343 8.68601 10.7881 8.56808 10.9729C8.45014 11.1578 8.37848 11.3684 8.35917 11.5868C8.32703 11.9249 8.16997 12.2389 7.91869 12.4675C7.66741 12.696 7.33995 12.8226 7.00029 12.8226C6.66063 12.8226 6.33317 12.696 6.08189 12.4675C5.83061 12.2389 5.67356 11.9249 5.64142 11.5868C5.62213 11.3683 5.55047 11.1576 5.4325 10.9727C5.31454 10.7878 5.15373 10.634 4.96372 10.5244C4.7737 10.4148 4.56007 10.3526 4.34092 10.3431C4.12177 10.3336 3.90355 10.377 3.70475 10.4697C3.3961 10.6098 3.04636 10.6301 2.72358 10.5266C2.40081 10.4231 2.1281 10.2032 1.95853 9.90965C1.78896 9.61615 1.73467 9.27005 1.80621 8.93872C1.87775 8.60738 2.07002 8.31452 2.34558 8.11713C2.52503 7.99122 2.67151 7.82394 2.77264 7.62945C2.87376 7.43496 2.92656 7.21897 2.92656 6.99976C2.92656 6.78054 2.87376 6.56456 2.77264 6.37006C2.67151 6.17557 2.52503 6.00829 2.34558 5.88238C2.0704 5.68489 1.87848 5.39214 1.80711 5.06104C1.73574 4.72993 1.79002 4.38411 1.95941 4.0908C2.12879 3.79748 2.40118 3.57762 2.72364 3.47394C3.04609 3.37026 3.39557 3.39017 3.70417 3.5298C3.90294 3.62239 4.1211 3.66574 4.34018 3.65616C4.55925 3.64658 4.77279 3.58437 4.96273 3.47478C5.15267 3.36519 5.3134 3.21145 5.43134 3.02658C5.54927 2.84171 5.62093 2.63115 5.64025 2.41271" stroke="#364153" stroke-width="1.16667" stroke-linecap="round" stroke-linejoin="round"/>
<path d="M7 8.75C7.9665 8.75 8.75 7.9665 8.75 7C8.75 6.0335 7.9665 5.25 7 5.25C6.0335 5.25 5.25 6.0335 5.25 7C5.25 7.9665 6.0335 8.75 7 8.75Z" stroke="#364153" stroke-width="1.16667" stroke-linecap="round" stroke-linejoin="round"/>
</g>
<defs>
<clipPath id="clip0_46_767">
<rect width="14" height="14" fill="white"/>
</clipPath>
</defs>
</svg>
