<svg width="18" height="18" viewBox="0 0 18 18" fill="none" xmlns="http://www.w3.org/2000/svg">
<path d="M16.0416 12.3958C16.0416 12.7826 15.8879 13.1535 15.6144 13.427C15.341 13.7005 14.97 13.8542 14.5833 13.8542H4.97867C4.59193 13.8542 4.22105 14.0079 3.94763 14.2815L2.342 15.8871C2.2696 15.9595 2.17736 16.0088 2.07694 16.0287C1.97653 16.0487 1.87244 16.0385 1.77785 15.9993C1.68326 15.9601 1.60241 15.8938 1.54552 15.8086C1.48864 15.7235 1.45827 15.6234 1.45825 15.521V3.64583C1.45825 3.25906 1.6119 2.88813 1.88539 2.61464C2.15888 2.34115 2.52981 2.1875 2.91659 2.1875H14.5833C14.97 2.1875 15.341 2.34115 15.6144 2.61464C15.8879 2.88813 16.0416 3.25906 16.0416 3.64583V12.3958Z" stroke="#1A1D2E" stroke-width="1.45833" stroke-linecap="round" stroke-linejoin="round"/>
</svg>
