<svg width="18" height="18" viewBox="0 0 18 18" fill="none" xmlns="http://www.w3.org/2000/svg">
<path d="M1.50358 9.00377C1.44282 8.84006 1.44282 8.65998 1.50358 8.49627C2.09545 7.06116 3.10011 5.83411 4.39019 4.97067C5.68027 4.10724 7.19768 3.6463 8.75004 3.6463C10.3024 3.6463 11.8198 4.10724 13.1099 4.97067C14.4 5.83411 15.4046 7.06116 15.9965 8.49627C16.0573 8.65998 16.0573 8.84006 15.9965 9.00377C15.4046 10.4389 14.4 11.6659 13.1099 12.5294C11.8198 13.3928 10.3024 13.8537 8.75004 13.8537C7.19768 13.8537 5.68027 13.3928 4.39019 12.5294C3.10011 11.6659 2.09545 10.4389 1.50358 9.00377Z" stroke="#1A1D2E" stroke-width="1.45833" stroke-linecap="round" stroke-linejoin="round"/>
<path d="M8.75 10.9375C9.95812 10.9375 10.9375 9.95812 10.9375 8.75C10.9375 7.54188 9.95812 6.5625 8.75 6.5625C7.54188 6.5625 6.5625 7.54188 6.5625 8.75C6.5625 9.95812 7.54188 10.9375 8.75 10.9375Z" stroke="#1A1D2E" stroke-width="1.45833" stroke-linecap="round" stroke-linejoin="round"/>
</svg>
