<svg width="18" height="18" viewBox="0 0 18 18" fill="none" xmlns="http://www.w3.org/2000/svg">
<path d="M1.45825 6.56251V3.64584C1.45825 3.25907 1.6119 2.88814 1.88539 2.61464C2.15888 2.34115 2.52981 2.18751 2.91659 2.18751H5.76034C6.00423 2.18512 6.24483 2.24394 6.46012 2.35859C6.6754 2.47323 6.85849 2.64005 6.99263 2.84376L7.58325 3.71876C7.71604 3.9204 7.89681 4.08591 8.10935 4.20045C8.32188 4.31499 8.55953 4.37497 8.80096 4.37501H14.5833C14.97 4.37501 15.341 4.52865 15.6144 4.80214C15.8879 5.07564 16.0416 5.44657 16.0416 5.83334V13.125C16.0416 13.5118 15.8879 13.8827 15.6144 14.1562C15.341 14.4297 14.97 14.5833 14.5833 14.5833H2.91659C2.52981 14.5833 2.15888 14.4297 1.88539 14.1562C1.6119 13.8827 1.45825 13.5118 1.45825 13.125V12.3958" stroke="#1A1D2E" stroke-width="1.45833" stroke-linecap="round" stroke-linejoin="round"/>
<path d="M1.45825 9.47919H8.74992" stroke="#1A1D2E" stroke-width="1.45833" stroke-linecap="round" stroke-linejoin="round"/>
<path d="M6.5625 11.6667L8.75 9.47919L6.5625 7.29169" stroke="#1A1D2E" stroke-width="1.45833" stroke-linecap="round" stroke-linejoin="round"/>
</svg>
