<svg width="18" height="18" viewBox="0 0 18 18" fill="none" xmlns="http://www.w3.org/2000/svg">
<path d="M7.29175 8.02081V12.3958" stroke="#FB2C36" stroke-width="1.45833" stroke-linecap="round" stroke-linejoin="round"/>
<path d="M10.2083 8.02081V12.3958" stroke="#FB2C36" stroke-width="1.45833" stroke-linecap="round" stroke-linejoin="round"/>
<path d="M13.8541 4.375V14.5833C13.8541 14.9701 13.7004 15.341 13.4269 15.6145C13.1535 15.888 12.7825 16.0417 12.3958 16.0417H5.10409C4.71731 16.0417 4.34638 15.888 4.07289 15.6145C3.7994 15.341 3.64575 14.9701 3.64575 14.5833V4.375" stroke="#FB2C36" stroke-width="1.45833" stroke-linecap="round" stroke-linejoin="round"/>
<path d="M2.1875 4.375H15.3125" stroke="#FB2C36" stroke-width="1.45833" stroke-linecap="round" stroke-linejoin="round"/>
<path d="M5.83325 4.37498V2.91665C5.83325 2.52987 5.9869 2.15894 6.26039 1.88545C6.53388 1.61196 6.90481 1.45831 7.29159 1.45831H10.2083C10.595 1.45831 10.966 1.61196 11.2394 1.88545C11.5129 2.15894 11.6666 2.52987 11.6666 2.91665V4.37498" stroke="#FB2C36" stroke-width="1.45833" stroke-linecap="round" stroke-linejoin="round"/>
</svg>
