<svg width="18" height="18" viewBox="0 0 18 18" fill="none" xmlns="http://www.w3.org/2000/svg">
<path d="M11.6667 3.64584H16.0417" stroke="white" stroke-width="1.45833" stroke-linecap="round" stroke-linejoin="round"/>
<path d="M13.8542 1.45834V5.83334" stroke="white" stroke-width="1.45833" stroke-linecap="round" stroke-linejoin="round"/>
<path d="M15.3125 8.38542V13.8542C15.3125 14.2409 15.1589 14.6119 14.8854 14.8854C14.6119 15.1589 14.2409 15.3125 13.8542 15.3125H3.64583C3.25906 15.3125 2.88813 15.1589 2.61464 14.8854C2.34115 14.6119 2.1875 14.2409 2.1875 13.8542V3.64583C2.1875 3.25906 2.34115 2.88813 2.61464 2.61464C2.88813 2.34115 3.25906 2.1875 3.64583 2.1875H9.11458" stroke="white" stroke-width="1.45833" stroke-linecap="round" stroke-linejoin="round"/>
<path d="M15.3125 10.9375L13.0623 8.68729C12.7888 8.4139 12.4179 8.26031 12.0313 8.26031C11.6446 8.26031 11.2737 8.4139 11.0002 8.68729L4.375 15.3125" stroke="white" stroke-width="1.45833" stroke-linecap="round" stroke-linejoin="round"/>
<path d="M6.56258 8.02082C7.368 8.02082 8.02091 7.36791 8.02091 6.56249C8.02091 5.75707 7.368 5.10416 6.56258 5.10416C5.75717 5.10416 5.10425 5.75707 5.10425 6.56249C5.10425 7.36791 5.75717 8.02082 6.56258 8.02082Z" stroke="white" stroke-width="1.45833" stroke-linecap="round" stroke-linejoin="round"/>
</svg>
