<svg width="18" height="18" viewBox="0 0 18 18" fill="none" xmlns="http://www.w3.org/2000/svg">
<path d="M15.4395 4.9671C15.825 4.58168 16.0416 4.0589 16.0417 3.51376C16.0418 2.96863 15.8253 2.44579 15.4399 2.06027C15.0544 1.67476 14.5317 1.45814 13.9865 1.45807C13.4414 1.458 12.9185 1.67449 12.533 2.05991L2.80157 11.7936C2.63227 11.9624 2.50707 12.1702 2.43699 12.3988L1.47376 15.5721C1.45492 15.6352 1.45349 15.7021 1.46964 15.7659C1.48579 15.8297 1.51891 15.888 1.56549 15.9345C1.61206 15.981 1.67036 16.014 1.73419 16.0301C1.79802 16.0461 1.865 16.0446 1.92803 16.0256L5.10209 15.0631C5.33045 14.9937 5.53826 14.8692 5.7073 14.7007L15.4395 4.9671Z" stroke="#1A1D2E" stroke-width="1.45833" stroke-linecap="round" stroke-linejoin="round"/>
<path d="M10.9375 3.64584L13.8542 6.56251" stroke="#1A1D2E" stroke-width="1.45833" stroke-linecap="round" stroke-linejoin="round"/>
</svg>
