<svg width="18" height="18" viewBox="0 0 18 18" fill="none" xmlns="http://www.w3.org/2000/svg">
<path d="M9.17721 1.8856C8.90378 1.6121 8.53291 1.4584 8.14617 1.45831H2.91659C2.52981 1.45831 2.15888 1.61196 1.88539 1.88545C1.6119 2.15894 1.45825 2.52987 1.45825 2.91665V8.14623C1.45833 8.53297 1.61203 8.90384 1.88554 9.17727L8.23221 15.5239C8.56363 15.8533 9.01187 16.0381 9.47909 16.0381C9.9463 16.0381 10.3945 15.8533 10.726 15.5239L15.5239 10.726C15.8532 10.3946 16.038 9.94636 16.038 9.47915C16.038 9.01193 15.8532 8.56369 15.5239 8.23227L9.17721 1.8856Z" stroke="#1A1D2E" stroke-width="1.45833" stroke-linecap="round" stroke-linejoin="round"/>
<path d="M5.46883 5.83335C5.67019 5.83335 5.83341 5.67012 5.83341 5.46877C5.83341 5.26742 5.67019 5.10419 5.46883 5.10419C5.26748 5.10419 5.10425 5.26742 5.10425 5.46877C5.10425 5.67012 5.26748 5.83335 5.46883 5.83335Z" fill="#1A1D2E" stroke="#1A1D2E" stroke-width="1.45833" stroke-linecap="round" stroke-linejoin="round"/>
</svg>
