<svg width="13" height="13" viewBox="0 0 13 13" fill="none" xmlns="http://www.w3.org/2000/svg">
<path d="M8.16667 10.2084V2.04171C8.16667 1.77097 8.05911 1.51131 7.86767 1.31987C7.67623 1.12843 7.41657 1.02087 7.14583 1.02087H5.10417C4.83342 1.02087 4.57377 1.12843 4.38233 1.31987C4.19088 1.51131 4.08333 1.77097 4.08333 2.04171V10.2084" stroke="#065F46" stroke-width="1.02083" stroke-linecap="round" stroke-linejoin="round"/>
<path d="M10.2083 3.0625H2.04167C1.47787 3.0625 1.02083 3.51954 1.02083 4.08333V9.1875C1.02083 9.75129 1.47787 10.2083 2.04167 10.2083H10.2083C10.7721 10.2083 11.2292 9.75129 11.2292 9.1875V4.08333C11.2292 3.51954 10.7721 3.0625 10.2083 3.0625Z" stroke="#065F46" stroke-width="1.02083" stroke-linecap="round" stroke-linejoin="round"/>
</svg>
