<svg width="13" height="13" viewBox="0 0 13 13" fill="none" xmlns="http://www.w3.org/2000/svg">
<g clip-path="url(#clip0_43_518)">
<path d="M6.125 1.02087V11.2292" stroke="#78350F" stroke-width="1.02083" stroke-linecap="round" stroke-linejoin="round"/>
<path d="M8.67708 2.55212H4.84896C4.37516 2.55212 3.92077 2.74034 3.58574 3.07537C3.25072 3.41039 3.0625 3.86478 3.0625 4.33858C3.0625 4.81238 3.25072 5.26677 3.58574 5.6018C3.92077 5.93683 4.37516 6.12504 4.84896 6.12504H7.40104C7.87484 6.12504 8.32923 6.31326 8.66426 6.64828C8.99929 6.98331 9.1875 7.4377 9.1875 7.9115C9.1875 8.3853 8.99929 8.83969 8.66426 9.17472C8.32923 9.50974 7.87484 9.69796 7.40104 9.69796H3.0625" stroke="#78350F" stroke-width="1.02083" stroke-linecap="round" stroke-linejoin="round"/>
</g>
<defs>
<clipPath id="clip0_43_518">
<rect width="12.25" height="12.25" fill="white"/>
</clipPath>
</defs>
</svg>
