<svg width="14" height="14" viewBox="0 0 14 14" fill="none" xmlns="http://www.w3.org/2000/svg">
<g clip-path="url(#clip0_43_531)">
<path d="M10.5 4.66663C11.4665 4.66663 12.25 3.88312 12.25 2.91663C12.25 1.95013 11.4665 1.16663 10.5 1.16663C9.5335 1.16663 8.75 1.95013 8.75 2.91663C8.75 3.88312 9.5335 4.66663 10.5 4.66663Z" stroke="white" stroke-width="1.16667" stroke-linecap="round" stroke-linejoin="round"/>
<path d="M3.5 8.75C4.4665 8.75 5.25 7.9665 5.25 7C5.25 6.0335 4.4665 5.25 3.5 5.25C2.5335 5.25 1.75 6.0335 1.75 7C1.75 7.9665 2.5335 8.75 3.5 8.75Z" stroke="white" stroke-width="1.16667" stroke-linecap="round" stroke-linejoin="round"/>
<path d="M10.5 12.8334C11.4665 12.8334 12.25 12.0499 12.25 11.0834C12.25 10.1169 11.4665 9.33337 10.5 9.33337C9.5335 9.33337 8.75 10.1169 8.75 11.0834C8.75 12.0499 9.5335 12.8334 10.5 12.8334Z" stroke="white" stroke-width="1.16667" stroke-linecap="round" stroke-linejoin="round"/>
<path d="M5.01083 7.88086L8.995 10.2025" stroke="white" stroke-width="1.16667" stroke-linecap="round" stroke-linejoin="round"/>
<path d="M8.98917 3.79749L5.01083 6.11915" stroke="white" stroke-width="1.16667" stroke-linecap="round" stroke-linejoin="round"/>
</g>
<defs>
<clipPath id="clip0_43_531">
<rect width="14" height="14" fill="white"/>
</clipPath>
</defs>
</svg>
