<svg width="18" height="18" viewBox="0 0 18 18" fill="none" xmlns="http://www.w3.org/2000/svg">
<path d="M8.75004 16.0417C12.7771 16.0417 16.0417 12.7771 16.0417 8.75C16.0417 4.72292 12.7771 1.45833 8.75004 1.45833C4.72296 1.45833 1.45837 4.72292 1.45837 8.75C1.45837 12.7771 4.72296 16.0417 8.75004 16.0417Z" stroke="#1A1D2E" stroke-width="1.45833" stroke-linecap="round" stroke-linejoin="round"/>
<path d="M6.62817 6.5625C6.7996 6.07518 7.13797 5.66425 7.58335 5.40249C8.02873 5.14074 8.55237 5.04506 9.06153 5.1324C9.57069 5.21973 10.0325 5.48445 10.3652 5.87966C10.6979 6.27487 10.88 6.77507 10.8792 7.29167C10.8792 8.75 8.69172 9.47917 8.69172 9.47917" stroke="#1A1D2E" stroke-width="1.45833" stroke-linecap="round" stroke-linejoin="round"/>
<path d="M8.75 12.3958H8.75729" stroke="#1A1D2E" stroke-width="1.45833" stroke-linecap="round" stroke-linejoin="round"/>
</svg>
