<svg width="18" height="18" viewBox="0 0 18 18" fill="none" xmlns="http://www.w3.org/2000/svg">
<path d="M8.75004 9.47917C9.15275 9.47917 9.47921 9.15271 9.47921 8.75C9.47921 8.34729 9.15275 8.02083 8.75004 8.02083C8.34733 8.02083 8.02087 8.34729 8.02087 8.75C8.02087 9.15271 8.34733 9.47917 8.75004 9.47917Z" stroke="#1A1D2E" stroke-width="1.45833" stroke-linecap="round" stroke-linejoin="round"/>
<path d="M8.75004 4.375C9.15275 4.375 9.47921 4.04854 9.47921 3.64583C9.47921 3.24313 9.15275 2.91667 8.75004 2.91667C8.34733 2.91667 8.02087 3.24313 8.02087 3.64583C8.02087 4.04854 8.34733 4.375 8.75004 4.375Z" stroke="#1A1D2E" stroke-width="1.45833" stroke-linecap="round" stroke-linejoin="round"/>
<path d="M8.75004 14.5833C9.15275 14.5833 9.47921 14.2569 9.47921 13.8542C9.47921 13.4515 9.15275 13.125 8.75004 13.125C8.34733 13.125 8.02087 13.4515 8.02087 13.8542C8.02087 14.2569 8.34733 14.5833 8.75004 14.5833Z" stroke="#1A1D2E" stroke-width="1.45833" stroke-linecap="round" stroke-linejoin="round"/>
</svg>
