<svg width="18" height="18" viewBox="0 0 18 18" fill="none" xmlns="http://www.w3.org/2000/svg">
<path d="M8.40366 1.67343C8.43561 1.60887 8.48497 1.55453 8.54617 1.51653C8.60737 1.47854 8.67797 1.4584 8.75001 1.4584C8.82204 1.4584 8.89265 1.47854 8.95385 1.51653C9.01505 1.55453 9.06441 1.60887 9.09636 1.67343L10.7807 5.0852C10.8917 5.30976 11.0555 5.50404 11.2581 5.65137C11.4606 5.79869 11.6959 5.89466 11.9438 5.93104L15.7106 6.48229C15.782 6.49263 15.8491 6.52273 15.9042 6.5692C15.9594 6.61567 16.0004 6.67664 16.0227 6.74523C16.045 6.81381 16.0477 6.88727 16.0304 6.95729C16.0132 7.02731 15.9766 7.0911 15.925 7.14145L13.2008 9.79416C13.0212 9.96923 12.8868 10.1853 12.8092 10.4239C12.7316 10.6624 12.7131 10.9163 12.7553 11.1635L13.3984 14.9115C13.411 14.9828 13.4033 15.0562 13.3762 15.1234C13.3491 15.1906 13.3036 15.2488 13.245 15.2913C13.1864 15.3339 13.117 15.3592 13.0447 15.3642C12.9724 15.3692 12.9002 15.3538 12.8363 15.3198L9.46897 13.5494C9.2471 13.4329 9.00025 13.372 8.74965 13.372C8.49905 13.372 8.25219 13.4329 8.03032 13.5494L4.66376 15.3198C4.59983 15.3536 4.5277 15.3688 4.45555 15.3637C4.3834 15.3586 4.31414 15.3333 4.25564 15.2908C4.19715 15.2482 4.15176 15.1901 4.12466 15.1231C4.09755 15.056 4.0898 14.9827 4.1023 14.9115L4.7447 11.1643C4.78713 10.9169 4.76875 10.6629 4.69113 10.4242C4.61351 10.1855 4.479 9.96927 4.29918 9.79416L1.57501 7.14218C1.52294 7.09189 1.48605 7.02799 1.46852 6.95776C1.451 6.88752 1.45356 6.81378 1.4759 6.74492C1.49824 6.67607 1.53948 6.61488 1.5949 6.56831C1.65032 6.52175 1.71771 6.49169 1.78939 6.48156L5.55553 5.93104C5.80363 5.89494 6.03925 5.7991 6.2421 5.65176C6.44495 5.50441 6.60896 5.30998 6.72001 5.0852L8.40366 1.67343Z" stroke="#1A1D2E" stroke-width="1.45833" stroke-linecap="round" stroke-linejoin="round"/>
</svg>
