<svg width="14" height="14" viewBox="0 0 14 14" fill="none" xmlns="http://www.w3.org/2000/svg">
<path d="M7.00002 7.58335C7.32219 7.58335 7.58335 7.32219 7.58335 7.00002C7.58335 6.67785 7.32219 6.41669 7.00002 6.41669C6.67785 6.41669 6.41669 6.67785 6.41669 7.00002C6.41669 7.32219 6.67785 7.58335 7.00002 7.58335Z" stroke="white" stroke-width="1.16667" stroke-linecap="round" stroke-linejoin="round"/>
<path d="M7.00002 3.49998C7.32219 3.49998 7.58335 3.23881 7.58335 2.91665C7.58335 2.59448 7.32219 2.33331 7.00002 2.33331C6.67785 2.33331 6.41669 2.59448 6.41669 2.91665C6.41669 3.23881 6.67785 3.49998 7.00002 3.49998Z" stroke="white" stroke-width="1.16667" stroke-linecap="round" stroke-linejoin="round"/>
<path d="M7.00002 11.6667C7.32219 11.6667 7.58335 11.4055 7.58335 11.0833C7.58335 10.7612 7.32219 10.5 7.00002 10.5C6.67785 10.5 6.41669 10.7612 6.41669 11.0833C6.41669 11.4055 6.67785 11.6667 7.00002 11.6667Z" stroke="white" stroke-width="1.16667" stroke-linecap="round" stroke-linejoin="round"/>
</svg>
