<svg width="14" height="14" viewBox="0 0 14 14" fill="none" xmlns="http://www.w3.org/2000/svg">
<path d="M5.25008 7.58332C5.57225 7.58332 5.83341 7.32216 5.83341 6.99999C5.83341 6.67782 5.57225 6.41666 5.25008 6.41666C4.92792 6.41666 4.66675 6.67782 4.66675 6.99999C4.66675 7.32216 4.92792 7.58332 5.25008 7.58332Z" stroke="#99A1AF" stroke-width="1.16667" stroke-linecap="round" stroke-linejoin="round"/>
<path d="M5.25008 3.50001C5.57225 3.50001 5.83341 3.23884 5.83341 2.91668C5.83341 2.59451 5.57225 2.33334 5.25008 2.33334C4.92792 2.33334 4.66675 2.59451 4.66675 2.91668C4.66675 3.23884 4.92792 3.50001 5.25008 3.50001Z" stroke="#99A1AF" stroke-width="1.16667" stroke-linecap="round" stroke-linejoin="round"/>
<path d="M5.25008 11.6667C5.57225 11.6667 5.83341 11.4055 5.83341 11.0833C5.83341 10.7612 5.57225 10.5 5.25008 10.5C4.92792 10.5 4.66675 10.7612 4.66675 11.0833C4.66675 11.4055 4.92792 11.6667 5.25008 11.6667Z" stroke="#99A1AF" stroke-width="1.16667" stroke-linecap="round" stroke-linejoin="round"/>
<path d="M8.75008 7.58332C9.07225 7.58332 9.33341 7.32216 9.33341 6.99999C9.33341 6.67782 9.07225 6.41666 8.75008 6.41666C8.42792 6.41666 8.16675 6.67782 8.16675 6.99999C8.16675 7.32216 8.42792 7.58332 8.75008 7.58332Z" stroke="#99A1AF" stroke-width="1.16667" stroke-linecap="round" stroke-linejoin="round"/>
<path d="M8.75008 3.50001C9.07225 3.50001 9.33341 3.23884 9.33341 2.91668C9.33341 2.59451 9.07225 2.33334 8.75008 2.33334C8.42792 2.33334 8.16675 2.59451 8.16675 2.91668C8.16675 3.23884 8.42792 3.50001 8.75008 3.50001Z" stroke="#99A1AF" stroke-width="1.16667" stroke-linecap="round" stroke-linejoin="round"/>
<path d="M8.75008 11.6667C9.07225 11.6667 9.33341 11.4055 9.33341 11.0833C9.33341 10.7612 9.07225 10.5 8.75008 10.5C8.42792 10.5 8.16675 10.7612 8.16675 11.0833C8.16675 11.4055 8.42792 11.6667 8.75008 11.6667Z" stroke="#99A1AF" stroke-width="1.16667" stroke-linecap="round" stroke-linejoin="round"/>
</svg>
