<svg width="14" height="14" viewBox="0 0 14 14" fill="none" xmlns="http://www.w3.org/2000/svg">
<path d="M5.83325 6.41666V9.91666" stroke="#FB2C36" stroke-width="1.16667" stroke-linecap="round" stroke-linejoin="round"/>
<path d="M8.16675 6.41666V9.91666" stroke="#FB2C36" stroke-width="1.16667" stroke-linecap="round" stroke-linejoin="round"/>
<path d="M11.0834 3.5V11.6667C11.0834 11.9761 10.9605 12.2728 10.7417 12.4916C10.5229 12.7104 10.2262 12.8333 9.91675 12.8333H4.08341C3.774 12.8333 3.47725 12.7104 3.25846 12.4916C3.03966 12.2728 2.91675 11.9761 2.91675 11.6667V3.5" stroke="#FB2C36" stroke-width="1.16667" stroke-linecap="round" stroke-linejoin="round"/>
<path d="M1.75 3.5H12.25" stroke="#FB2C36" stroke-width="1.16667" stroke-linecap="round" stroke-linejoin="round"/>
<path d="M4.66675 3.49999V2.33332C4.66675 2.0239 4.78966 1.72716 5.00846 1.50837C5.22725 1.28957 5.524 1.16666 5.83341 1.16666H8.16675C8.47617 1.16666 8.77291 1.28957 8.99171 1.50837C9.2105 1.72716 9.33341 2.0239 9.33341 2.33332V3.49999" stroke="#FB2C36" stroke-width="1.16667" stroke-linecap="round" stroke-linejoin="round"/>
</svg>
