<svg width="11" height="11" viewBox="0 0 11 11" fill="none" xmlns="http://www.w3.org/2000/svg">
<g clip-path="url(#clip0_8_511)">
<path d="M9.625 7.4375C9.625 7.66956 9.53281 7.89212 9.36872 8.05622C9.20462 8.22031 8.98206 8.3125 8.75 8.3125H2.98725C2.7552 8.31255 2.53268 8.40477 2.36863 8.56888L1.40525 9.53225C1.36181 9.57568 1.30646 9.60526 1.24621 9.61724C1.18596 9.62923 1.12351 9.62307 1.06676 9.59957C1.01 9.57606 0.961495 9.53625 0.927362 9.48518C0.89323 9.4341 0.875008 9.37405 0.875 9.31262V2.1875C0.875 1.95544 0.967187 1.73288 1.13128 1.56878C1.29538 1.40469 1.51794 1.3125 1.75 1.3125H8.75C8.98206 1.3125 9.20462 1.40469 9.36872 1.56878C9.53281 1.73288 9.625 1.95544 9.625 2.1875V7.4375Z" stroke="#1E3A8A" stroke-width="0.875" stroke-linecap="round" stroke-linejoin="round"/>
</g>
<defs>
<clipPath id="clip0_8_511">
<rect width="10.5" height="10.5" fill="white"/>
</clipPath>
</defs>
</svg>
