<svg width="14" height="14" viewBox="0 0 14 14" fill="none" xmlns="http://www.w3.org/2000/svg">
<path d="M5.83325 6.41669V9.91669" stroke="#FB2C36" stroke-width="1.16667" stroke-linecap="round" stroke-linejoin="round"/>
<path d="M8.16675 6.41669V9.91669" stroke="#FB2C36" stroke-width="1.16667" stroke-linecap="round" stroke-linejoin="round"/>
<path d="M11.0834 3.5V11.6667C11.0834 11.9761 10.9605 12.2728 10.7417 12.4916C10.5229 12.7104 10.2262 12.8333 9.91675 12.8333H4.08341C3.774 12.8333 3.47725 12.7104 3.25846 12.4916C3.03966 12.2728 2.91675 11.9761 2.91675 11.6667V3.5" stroke="#FB2C36" stroke-width="1.16667" stroke-linecap="round" stroke-linejoin="round"/>
<path d="M1.75 3.5H12.25" stroke="#FB2C36" stroke-width="1.16667" stroke-linecap="round" stroke-linejoin="round"/>
<path d="M4.66675 3.50002V2.33335C4.66675 2.02393 4.78966 1.72719 5.00846 1.5084C5.22725 1.2896 5.524 1.16669 5.83341 1.16669H8.16675C8.47617 1.16669 8.77291 1.2896 8.99171 1.5084C9.2105 1.72719 9.33341 2.02393 9.33341 2.33335V3.50002" stroke="#FB2C36" stroke-width="1.16667" stroke-linecap="round" stroke-linejoin="round"/>
</svg>
