<svg width="18" height="18" viewBox="0 0 18 18" fill="none" xmlns="http://www.w3.org/2000/svg">
<path d="M11.6666 14.5833V2.91668C11.6666 2.5299 11.5129 2.15897 11.2394 1.88548C10.966 1.61199 10.595 1.45834 10.2083 1.45834H7.29159C6.90481 1.45834 6.53388 1.61199 6.26039 1.88548C5.9869 2.15897 5.83325 2.5299 5.83325 2.91668V14.5833" stroke="#364153" stroke-width="1.45833" stroke-linecap="round" stroke-linejoin="round"/>
<path d="M14.5833 4.375H2.91659C2.11117 4.375 1.45825 5.02792 1.45825 5.83333V13.125C1.45825 13.9304 2.11117 14.5833 2.91659 14.5833H14.5833C15.3887 14.5833 16.0416 13.9304 16.0416 13.125V5.83333C16.0416 5.02792 15.3887 4.375 14.5833 4.375Z" stroke="#364153" stroke-width="1.45833" stroke-linecap="round" stroke-linejoin="round"/>
</svg>
