<svg width="18" height="18" viewBox="0 0 18 18" fill="none" xmlns="http://www.w3.org/2000/svg">
<g clip-path="url(#clip0_8_557)">
<path d="M8.75 1.45834V16.0417" stroke="#364153" stroke-width="1.45833" stroke-linecap="round" stroke-linejoin="round"/>
<path d="M12.3958 3.64584H6.92708C6.25023 3.64584 5.6011 3.91472 5.12249 4.39333C4.64388 4.87194 4.375 5.52107 4.375 6.19793C4.375 6.87478 4.64388 7.52391 5.12249 8.00252C5.6011 8.48113 6.25023 8.75001 6.92708 8.75001H10.5729C11.2498 8.75001 11.8989 9.01889 12.3775 9.4975C12.8561 9.97611 13.125 10.6252 13.125 11.3021C13.125 11.9789 12.8561 12.6281 12.3775 13.1067C11.8989 13.5853 11.2498 13.8542 10.5729 13.8542H4.375" stroke="#364153" stroke-width="1.45833" stroke-linecap="round" stroke-linejoin="round"/>
</g>
<defs>
<clipPath id="clip0_8_557">
<rect width="17.5" height="17.5" fill="white"/>
</clipPath>
</defs>
</svg>
