<svg width="18" height="18" viewBox="0 0 18 18" fill="none" xmlns="http://www.w3.org/2000/svg">
<g clip-path="url(#clip0_8_561)">
<path d="M10.9376 1.45834H4.37508C3.98831 1.45834 3.61737 1.61199 3.34388 1.88548C3.07039 2.15897 2.91675 2.5299 2.91675 2.91668V14.5833C2.91675 14.9701 3.07039 15.341 3.34388 15.6145C3.61737 15.888 3.98831 16.0417 4.37508 16.0417H13.1251C13.5119 16.0417 13.8828 15.888 14.1563 15.6145C14.4298 15.341 14.5834 14.9701 14.5834 14.5833V5.10418L10.9376 1.45834Z" stroke="#364153" stroke-width="1.45833" stroke-linecap="round" stroke-linejoin="round"/>
<path d="M10.2083 1.45834V4.37501C10.2083 4.76178 10.3619 5.13272 10.6354 5.40621C10.9089 5.6797 11.2798 5.83334 11.6666 5.83334H14.5833" stroke="#364153" stroke-width="1.45833" stroke-linecap="round" stroke-linejoin="round"/>
<path d="M7.29159 6.5625H5.83325" stroke="#364153" stroke-width="1.45833" stroke-linecap="round" stroke-linejoin="round"/>
<path d="M11.6666 9.47916H5.83325" stroke="#364153" stroke-width="1.45833" stroke-linecap="round" stroke-linejoin="round"/>
<path d="M11.6666 12.3958H5.83325" stroke="#364153" stroke-width="1.45833" stroke-linecap="round" stroke-linejoin="round"/>
</g>
<defs>
<clipPath id="clip0_8_561">
<rect width="17.5" height="17.5" fill="white"/>
</clipPath>
</defs>
</svg>
