<svg width="18" height="18" viewBox="0 0 18 18" fill="none" xmlns="http://www.w3.org/2000/svg">
<g clip-path="url(#clip0_8_571)">
<path d="M9.17721 1.88564C8.90378 1.61213 8.53291 1.45843 8.14617 1.45834H2.91659C2.52981 1.45834 2.15888 1.61199 1.88539 1.88548C1.6119 2.15897 1.45825 2.5299 1.45825 2.91668V8.14626C1.45833 8.533 1.61203 8.90388 1.88554 9.1773L8.23221 15.524C8.56363 15.8533 9.01187 16.0381 9.47909 16.0381C9.9463 16.0381 10.3945 15.8533 10.726 15.524L15.5239 10.7261C15.8532 10.3946 16.038 9.94639 16.038 9.47918C16.038 9.01196 15.8532 8.56372 15.5239 8.2323L9.17721 1.88564Z" stroke="#364153" stroke-width="1.45833" stroke-linecap="round" stroke-linejoin="round"/>
<path d="M5.46883 5.83332C5.67019 5.83332 5.83341 5.67009 5.83341 5.46874C5.83341 5.26739 5.67019 5.10416 5.46883 5.10416C5.26748 5.10416 5.10425 5.26739 5.10425 5.46874C5.10425 5.67009 5.26748 5.83332 5.46883 5.83332Z" fill="#364153" stroke="#364153" stroke-width="1.45833" stroke-linecap="round" stroke-linejoin="round"/>
</g>
<defs>
<clipPath id="clip0_8_571">
<rect width="17.5" height="17.5" fill="white"/>
</clipPath>
</defs>
</svg>
