<svg width="18" height="18" viewBox="0 0 18 18" fill="none" xmlns="http://www.w3.org/2000/svg">
<g clip-path="url(#clip0_8_581)">
<path d="M14.5834 7.29168C14.5834 10.9324 10.5446 14.7241 9.18831 15.8951C9.06196 15.9901 8.90816 16.0415 8.75008 16.0415C8.592 16.0415 8.4382 15.9901 8.31185 15.8951C6.9556 14.7241 2.91675 10.9324 2.91675 7.29168C2.91675 5.74458 3.53133 4.26085 4.62529 3.16689C5.71925 2.07293 7.20299 1.45834 8.75008 1.45834C10.2972 1.45834 11.7809 2.07293 12.8749 3.16689C13.9688 4.26085 14.5834 5.74458 14.5834 7.29168Z" stroke="#364153" stroke-width="1.45833" stroke-linecap="round" stroke-linejoin="round"/>
<path d="M8.75 9.47916C9.95812 9.47916 10.9375 8.49978 10.9375 7.29166C10.9375 6.08353 9.95812 5.10416 8.75 5.10416C7.54188 5.10416 6.5625 6.08353 6.5625 7.29166C6.5625 8.49978 7.54188 9.47916 8.75 9.47916Z" stroke="#364153" stroke-width="1.45833" stroke-linecap="round" stroke-linejoin="round"/>
</g>
<defs>
<clipPath id="clip0_8_581">
<rect width="17.5" height="17.5" fill="white"/>
</clipPath>
</defs>
</svg>
