<svg width="18" height="18" viewBox="0 0 18 18" fill="none" xmlns="http://www.w3.org/2000/svg">
<g clip-path="url(#clip0_8_585)">
<path d="M10.0858 12.0808C10.2363 12.15 10.406 12.1658 10.5668 12.1256C10.7276 12.0855 10.8698 11.9918 10.9702 11.8599L11.2291 11.5208C11.3649 11.3397 11.5411 11.1927 11.7436 11.0915C11.9461 10.9902 12.1694 10.9375 12.3958 10.9375H14.5833C14.97 10.9375 15.341 11.0912 15.6144 11.3646C15.8879 11.6381 16.0416 12.0091 16.0416 12.3958V14.5833C16.0416 14.9701 15.8879 15.341 15.6144 15.6145C15.341 15.888 14.97 16.0417 14.5833 16.0417C11.1023 16.0417 7.76389 14.6589 5.30248 12.1975C2.84106 9.73604 1.45825 6.39764 1.45825 2.91668C1.45825 2.5299 1.6119 2.15897 1.88539 1.88548C2.15888 1.61199 2.52981 1.45834 2.91659 1.45834H5.10409C5.49086 1.45834 5.86179 1.61199 6.13528 1.88548C6.40877 2.15897 6.56242 2.5299 6.56242 2.91668V5.10418C6.56242 5.33058 6.50971 5.55387 6.40846 5.75636C6.30721 5.95886 6.1602 6.135 5.97908 6.27084L5.63783 6.52678C5.50397 6.62899 5.40962 6.7744 5.37081 6.93829C5.33199 7.10218 5.35111 7.27445 5.42492 7.42584C6.42146 9.44991 8.06044 11.0868 10.0858 12.0808Z" stroke="#364153" stroke-width="1.45833" stroke-linecap="round" stroke-linejoin="round"/>
</g>
<defs>
<clipPath id="clip0_8_585">
<rect width="17.5" height="17.5" fill="white"/>
</clipPath>
</defs>
</svg>
