<svg width="14" height="14" viewBox="0 0 14 14" fill="none" xmlns="http://www.w3.org/2000/svg">
<path d="M7.00002 7.58332C7.32219 7.58332 7.58335 7.32216 7.58335 6.99999C7.58335 6.67782 7.32219 6.41666 7.00002 6.41666C6.67785 6.41666 6.41669 6.67782 6.41669 6.99999C6.41669 7.32216 6.67785 7.58332 7.00002 7.58332Z" stroke="black" stroke-width="1.16667" stroke-linecap="round" stroke-linejoin="round"/>
<path d="M7.00002 3.50001C7.32219 3.50001 7.58335 3.23884 7.58335 2.91668C7.58335 2.59451 7.32219 2.33334 7.00002 2.33334C6.67785 2.33334 6.41669 2.59451 6.41669 2.91668C6.41669 3.23884 6.67785 3.50001 7.00002 3.50001Z" stroke="black" stroke-width="1.16667" stroke-linecap="round" stroke-linejoin="round"/>
<path d="M7.00002 11.6667C7.32219 11.6667 7.58335 11.4055 7.58335 11.0833C7.58335 10.7612 7.32219 10.5 7.00002 10.5C6.67785 10.5 6.41669 10.7612 6.41669 11.0833C6.41669 11.4055 6.67785 11.6667 7.00002 11.6667Z" stroke="black" stroke-width="1.16667" stroke-linecap="round" stroke-linejoin="round"/>
</svg>
