<svg width="21" height="21" viewBox="0 0 21 21" fill="none" xmlns="http://www.w3.org/2000/svg">
<path d="M2.61797 14.2992C2.74663 14.6238 2.77528 14.9794 2.70022 15.3204L1.76835 18.1991C1.73832 18.3451 1.74609 18.4963 1.7909 18.6385C1.83572 18.7806 1.9161 18.909 2.02443 19.0113C2.13276 19.1137 2.26544 19.1867 2.4099 19.2234C2.55435 19.2601 2.70579 19.2593 2.84985 19.2211L5.83622 18.3479C6.15797 18.284 6.49119 18.3119 6.79785 18.4284C8.66631 19.3009 10.7829 19.4855 12.7742 18.9496C14.7655 18.4137 16.5036 17.1917 17.6817 15.4992C18.8598 13.8067 19.4023 11.7525 19.2135 9.69896C19.0246 7.64546 18.1166 5.72464 16.6495 4.2754C15.1825 2.82616 13.2507 1.94164 11.1951 1.77789C9.1394 1.61414 7.09197 2.18169 5.41399 3.3804C3.736 4.57911 2.53531 6.33195 2.02376 8.32966C1.5122 10.3274 1.72265 12.4416 2.61797 14.2992Z" stroke="white" stroke-width="1.75" stroke-linecap="round" stroke-linejoin="round"/>
</svg>
