<svg width="14" height="14" viewBox="0 0 14 14" fill="none" xmlns="http://www.w3.org/2000/svg">
<path d="M5.64135 2.41271C5.67349 2.07458 5.83054 1.76057 6.08183 1.53204C6.33311 1.30351 6.66057 1.17688 7.00022 1.17688C7.33988 1.17688 7.66734 1.30351 7.91862 1.53204C8.16991 1.76057 8.32696 2.07458 8.3591 2.41271C8.37842 2.63115 8.45008 2.84171 8.56801 3.02658C8.68595 3.21145 8.84668 3.36519 9.03662 3.47478C9.22656 3.58437 9.4401 3.64658 9.65918 3.65616C9.87825 3.66574 10.0964 3.62239 10.2952 3.5298C10.6038 3.38967 10.9536 3.36939 11.2763 3.47291C11.5991 3.57644 11.8718 3.79635 12.0414 4.08986C12.211 4.38337 12.2653 4.72946 12.1937 5.0608C12.1222 5.39213 11.9299 5.68499 11.6544 5.88238C11.4749 6.00829 11.3284 6.17557 11.2273 6.37006C11.1262 6.56456 11.0734 6.78054 11.0734 6.99976C11.0734 7.21897 11.1262 7.43496 11.2273 7.62945C11.3284 7.82394 11.4749 7.99122 11.6544 8.11713C11.9299 8.31452 12.1222 8.60738 12.1937 8.93872C12.2653 9.27005 12.211 9.61615 12.0414 9.90965C11.8718 10.2032 11.5991 10.4231 11.2763 10.5266C10.9536 10.6301 10.6038 10.6098 10.2952 10.4697C10.0964 10.3771 9.87825 10.3338 9.65918 10.3434C9.4401 10.3529 9.22656 10.4151 9.03662 10.5247C8.84668 10.6343 8.68595 10.7881 8.56801 10.9729C8.45008 11.1578 8.37842 11.3684 8.3591 11.5868C8.32696 11.9249 8.16991 12.2389 7.91862 12.4675C7.66734 12.696 7.33988 12.8226 7.00022 12.8226C6.66057 12.8226 6.33311 12.696 6.08183 12.4675C5.83054 12.2389 5.67349 11.9249 5.64135 11.5868C5.62207 11.3683 5.55041 11.1576 5.43244 10.9727C5.31447 10.7878 5.15367 10.634 4.96365 10.5244C4.77364 10.4148 4.56001 10.3526 4.34085 10.3431C4.1217 10.3336 3.90348 10.377 3.70468 10.4697C3.39604 10.6098 3.04629 10.6301 2.72352 10.5266C2.40074 10.4231 2.12803 10.2032 1.95847 9.90965C1.7889 9.61615 1.7346 9.27005 1.80614 8.93872C1.87769 8.60738 2.06995 8.31452 2.34552 8.11713C2.52496 7.99122 2.67144 7.82394 2.77257 7.62945C2.87369 7.43496 2.92649 7.21897 2.92649 6.99976C2.92649 6.78054 2.87369 6.56456 2.77257 6.37006C2.67144 6.17557 2.52496 6.00829 2.34552 5.88238C2.07034 5.68489 1.87841 5.39214 1.80704 5.06104C1.73567 4.72993 1.78996 4.38411 1.95934 4.0908C2.12873 3.79748 2.40112 3.57762 2.72357 3.47394C3.04602 3.37026 3.39551 3.39017 3.7041 3.5298C3.90288 3.62239 4.12103 3.66574 4.34011 3.65616C4.55918 3.64658 4.77273 3.58437 4.96266 3.47478C5.1526 3.36519 5.31334 3.21145 5.43127 3.02658C5.54921 2.84171 5.62087 2.63115 5.64018 2.41271" stroke="#364153" stroke-width="1.16667" stroke-linecap="round" stroke-linejoin="round"/>
<path d="M7 8.75C7.9665 8.75 8.75 7.9665 8.75 7C8.75 6.0335 7.9665 5.25 7 5.25C6.0335 5.25 5.25 6.0335 5.25 7C5.25 7.9665 6.0335 8.75 7 8.75Z" stroke="#364153" stroke-width="1.16667" stroke-linecap="round" stroke-linejoin="round"/>
</svg>
