<svg width="18" height="18" viewBox="0 0 18 18" fill="none" xmlns="http://www.w3.org/2000/svg">
<path d="M8.75 2.1875H3.64583C3.25906 2.1875 2.88813 2.34115 2.61464 2.61464C2.34115 2.88813 2.1875 3.25906 2.1875 3.64583V13.8542C2.1875 14.2409 2.34115 14.6119 2.61464 14.8854C2.88813 15.1589 3.25906 15.3125 3.64583 15.3125H13.8542C14.2409 15.3125 14.6119 15.1589 14.8854 14.8854C15.1589 14.6119 15.3125 14.2409 15.3125 13.8542V8.75" stroke="#4A5565" stroke-width="1.45833" stroke-linecap="round" stroke-linejoin="round"/>
<path d="M13.3985 1.91408C13.6885 1.62399 14.082 1.46103 14.4922 1.46103C14.9025 1.46103 15.2959 1.62399 15.586 1.91408C15.876 2.20416 16.039 2.59759 16.039 3.00782C16.039 3.41806 15.876 3.81149 15.586 4.10157L9.01399 10.6743C8.84084 10.8473 8.62695 10.9739 8.39201 11.0425L6.29711 11.655C6.23437 11.6733 6.16786 11.6744 6.10454 11.6582C6.04123 11.642 5.98344 11.609 5.93723 11.5628C5.89101 11.5166 5.85807 11.4588 5.84185 11.3955C5.82563 11.3322 5.82673 11.2657 5.84503 11.2029L6.45753 9.10803C6.52645 8.87328 6.65333 8.65964 6.82649 8.48678L13.3985 1.91408Z" stroke="#4A5565" stroke-width="1.45833" stroke-linecap="round" stroke-linejoin="round"/>
</svg>
