<svg width="18" height="18" viewBox="0 0 18 18" fill="none" xmlns="http://www.w3.org/2000/svg">
<path d="M1.45837 8.38542V3.64583C1.45837 3.25906 1.61202 2.88813 1.88551 2.61464C2.159 2.34115 2.52993 2.1875 2.91671 2.1875H5.76046C6.27087 2.1875 6.70837 2.40625 7.00004 2.84375L7.58337 3.71875C7.87504 4.15625 8.31254 4.375 8.82296 4.375H14.5834C14.9701 4.375 15.3411 4.52865 15.6146 4.80214C15.8881 5.07563 16.0417 5.44656 16.0417 5.83333V13.125C16.0417 13.5118 15.8881 13.8827 15.6146 14.1562C15.3411 14.4297 14.9701 14.5833 14.5834 14.5833H7.65629" stroke="#4A5565" stroke-width="1.45833" stroke-linecap="round" stroke-linejoin="round"/>
<path d="M8.2965 9.93563C8.44033 9.79181 8.55442 9.62106 8.63225 9.43315C8.71009 9.24523 8.75015 9.04382 8.75015 8.84042C8.75015 8.63702 8.71009 8.43562 8.63225 8.2477C8.55442 8.05979 8.44033 7.88904 8.2965 7.74521C8.15268 7.60139 7.98193 7.4873 7.79402 7.40946C7.6061 7.33163 7.40469 7.29156 7.20129 7.29156C6.99789 7.29156 6.79649 7.33163 6.60857 7.40946C6.42066 7.4873 6.24991 7.60139 6.10609 7.74521L2.45296 11.3998C2.2796 11.5731 2.1527 11.7872 2.084 12.0225L1.47369 14.1152C1.45539 14.178 1.45429 14.2445 1.47051 14.3078C1.48673 14.3711 1.51968 14.4289 1.56589 14.4751C1.61211 14.5213 1.66989 14.5543 1.73321 14.5705C1.79652 14.5867 1.86303 14.5856 1.92577 14.5673L4.01848 13.957C4.25376 13.8883 4.46792 13.7614 4.64119 13.588L8.2965 9.93563Z" stroke="#4A5565" stroke-width="1.45833" stroke-linecap="round" stroke-linejoin="round"/>
</svg>
