<svg width="18" height="18" viewBox="0 0 18 18" fill="none" xmlns="http://www.w3.org/2000/svg">
<path d="M13.125 5.83331C14.3331 5.83331 15.3125 4.85394 15.3125 3.64581C15.3125 2.43769 14.3331 1.45831 13.125 1.45831C11.9169 1.45831 10.9375 2.43769 10.9375 3.64581C10.9375 4.85394 11.9169 5.83331 13.125 5.83331Z" stroke="#4A5565" stroke-width="1.45833" stroke-linecap="round" stroke-linejoin="round"/>
<path d="M4.375 10.9375C5.58312 10.9375 6.5625 9.95812 6.5625 8.75C6.5625 7.54188 5.58312 6.5625 4.375 6.5625C3.16688 6.5625 2.1875 7.54188 2.1875 8.75C2.1875 9.95812 3.16688 10.9375 4.375 10.9375Z" stroke="#4A5565" stroke-width="1.45833" stroke-linecap="round" stroke-linejoin="round"/>
<path d="M13.125 16.0417C14.3331 16.0417 15.3125 15.0623 15.3125 13.8542C15.3125 12.6461 14.3331 11.6667 13.125 11.6667C11.9169 11.6667 10.9375 12.6461 10.9375 13.8542C10.9375 15.0623 11.9169 16.0417 13.125 16.0417Z" stroke="#4A5565" stroke-width="1.45833" stroke-linecap="round" stroke-linejoin="round"/>
<path d="M6.26355 9.85107L11.2438 12.7532" stroke="#4A5565" stroke-width="1.45833" stroke-linecap="round" stroke-linejoin="round"/>
<path d="M11.2365 4.74689L6.26355 7.64897" stroke="#4A5565" stroke-width="1.45833" stroke-linecap="round" stroke-linejoin="round"/>
</svg>
