<svg width="14" height="14" viewBox="0 0 14 14" fill="none" xmlns="http://www.w3.org/2000/svg">
<g clip-path="url(#clip0_4_1218)">
<path d="M5.64135 2.41267C5.67349 2.07453 5.83054 1.76053 6.08183 1.532C6.33311 1.30347 6.66057 1.17683 7.00022 1.17683C7.33988 1.17683 7.66734 1.30347 7.91862 1.532C8.16991 1.76053 8.32696 2.07453 8.3591 2.41267C8.37842 2.6311 8.45008 2.84166 8.56801 3.02653C8.68595 3.2114 8.84668 3.36514 9.03662 3.47473C9.22656 3.58432 9.4401 3.64653 9.65918 3.65611C9.87825 3.66569 10.0964 3.62235 10.2952 3.52975C10.6038 3.38962 10.9536 3.36934 11.2763 3.47287C11.5991 3.57639 11.8718 3.7963 12.0414 4.08981C12.211 4.38332 12.2653 4.72942 12.1937 5.06075C12.1222 5.39208 11.9299 5.68494 11.6544 5.88233C11.4749 6.00824 11.3284 6.17552 11.2273 6.37001C11.1262 6.56451 11.0734 6.7805 11.0734 6.99971C11.0734 7.21892 11.1262 7.43491 11.2273 7.6294C11.3284 7.8239 11.4749 7.99117 11.6544 8.11708C11.9299 8.31447 12.1222 8.60733 12.1937 8.93867C12.2653 9.27 12.211 9.6161 12.0414 9.90961C11.8718 10.2031 11.5991 10.423 11.2763 10.5266C10.9536 10.6301 10.6038 10.6098 10.2952 10.4697C10.0964 10.3771 9.87825 10.3337 9.65918 10.3433C9.4401 10.3529 9.22656 10.4151 9.03662 10.5247C8.84668 10.6343 8.68595 10.788 8.56801 10.9729C8.45008 11.1578 8.37842 11.3683 8.3591 11.5868C8.32696 11.9249 8.16991 12.2389 7.91862 12.4674C7.66734 12.696 7.33988 12.8226 7.00022 12.8226C6.66057 12.8226 6.33311 12.696 6.08183 12.4674C5.83054 12.2389 5.67349 11.9249 5.64135 11.5868C5.62207 11.3682 5.55041 11.1576 5.43244 10.9727C5.31447 10.7877 5.15367 10.6339 4.96365 10.5243C4.77364 10.4147 4.56001 10.3525 4.34085 10.343C4.1217 10.3335 3.90348 10.3769 3.70468 10.4697C3.39604 10.6098 3.04629 10.6301 2.72352 10.5266C2.40074 10.423 2.12803 10.2031 1.95847 9.90961C1.7889 9.6161 1.7346 9.27 1.80614 8.93867C1.87769 8.60733 2.06995 8.31447 2.34552 8.11708C2.52496 7.99117 2.67144 7.8239 2.77257 7.6294C2.87369 7.43491 2.92649 7.21892 2.92649 6.99971C2.92649 6.7805 2.87369 6.56451 2.77257 6.37001C2.67144 6.17552 2.52496 6.00824 2.34552 5.88233C2.07034 5.68484 1.87841 5.3921 1.80704 5.06099C1.73567 4.72988 1.78996 4.38407 1.95934 4.09075C2.12873 3.79743 2.40112 3.57757 2.72357 3.47389C3.04602 3.37021 3.39551 3.39012 3.7041 3.52975C3.90288 3.62235 4.12103 3.66569 4.34011 3.65611C4.55918 3.64653 4.77273 3.58432 4.96266 3.47473C5.1526 3.36514 5.31334 3.2114 5.43127 3.02653C5.54921 2.84166 5.62087 2.6311 5.64018 2.41267" stroke="#1A1D2E" stroke-width="1.16667" stroke-linecap="round" stroke-linejoin="round"/>
<path d="M7 8.75C7.9665 8.75 8.75 7.9665 8.75 7C8.75 6.0335 7.9665 5.25 7 5.25C6.0335 5.25 5.25 6.0335 5.25 7C5.25 7.9665 6.0335 8.75 7 8.75Z" stroke="#1A1D2E" stroke-width="1.16667" stroke-linecap="round" stroke-linejoin="round"/>
</g>
<defs>
<clipPath id="clip0_4_1218">
<rect width="14" height="14" fill="white"/>
</clipPath>
</defs>
</svg>
