<svg width="14" height="14" viewBox="0 0 14 14" fill="none" xmlns="http://www.w3.org/2000/svg">
<path d="M7.00001 7.58332C7.32217 7.58332 7.58334 7.32216 7.58334 6.99999C7.58334 6.67782 7.32217 6.41666 7.00001 6.41666C6.67784 6.41666 6.41667 6.67782 6.41667 6.99999C6.41667 7.32216 6.67784 7.58332 7.00001 7.58332Z" stroke="black" stroke-width="1.16667" stroke-linecap="round" stroke-linejoin="round"/>
<path d="M7.00001 3.50001C7.32217 3.50001 7.58334 3.23884 7.58334 2.91668C7.58334 2.59451 7.32217 2.33334 7.00001 2.33334C6.67784 2.33334 6.41667 2.59451 6.41667 2.91668C6.41667 3.23884 6.67784 3.50001 7.00001 3.50001Z" stroke="black" stroke-width="1.16667" stroke-linecap="round" stroke-linejoin="round"/>
<path d="M7.00001 11.6667C7.32217 11.6667 7.58334 11.4055 7.58334 11.0833C7.58334 10.7612 7.32217 10.5 7.00001 10.5C6.67784 10.5 6.41667 10.7612 6.41667 11.0833C6.41667 11.4055 6.67784 11.6667 7.00001 11.6667Z" stroke="black" stroke-width="1.16667" stroke-linecap="round" stroke-linejoin="round"/>
</svg>
