<svg width="14" height="14" viewBox="0 0 14 14" fill="none" xmlns="http://www.w3.org/2000/svg">
<path d="M7.00001 7.58335C7.32217 7.58335 7.58334 7.32219 7.58334 7.00002C7.58334 6.67785 7.32217 6.41669 7.00001 6.41669C6.67784 6.41669 6.41667 6.67785 6.41667 7.00002C6.41667 7.32219 6.67784 7.58335 7.00001 7.58335Z" stroke="white" stroke-width="1.16667" stroke-linecap="round" stroke-linejoin="round"/>
<path d="M7.00001 3.49998C7.32217 3.49998 7.58334 3.23881 7.58334 2.91665C7.58334 2.59448 7.32217 2.33331 7.00001 2.33331C6.67784 2.33331 6.41667 2.59448 6.41667 2.91665C6.41667 3.23881 6.67784 3.49998 7.00001 3.49998Z" stroke="white" stroke-width="1.16667" stroke-linecap="round" stroke-linejoin="round"/>
<path d="M7.00001 11.6667C7.32217 11.6667 7.58334 11.4055 7.58334 11.0833C7.58334 10.7612 7.32217 10.5 7.00001 10.5C6.67784 10.5 6.41667 10.7612 6.41667 11.0833C6.41667 11.4055 6.67784 11.6667 7.00001 11.6667Z" stroke="white" stroke-width="1.16667" stroke-linecap="round" stroke-linejoin="round"/>
</svg>
