<svg width="18" height="18" viewBox="0 0 18 18" fill="none" xmlns="http://www.w3.org/2000/svg">
<path d="M7.05175 3.01583C7.09192 2.59316 7.28824 2.20066 7.60234 1.91499C7.91645 1.62933 8.32577 1.47104 8.75034 1.47104C9.17492 1.47104 9.58424 1.62933 9.89834 1.91499C10.2124 2.20066 10.4088 2.59316 10.4489 3.01583C10.4731 3.28887 10.5627 3.55207 10.7101 3.78316C10.8575 4.01425 11.0584 4.20642 11.2958 4.34341C11.5333 4.4804 11.8002 4.55817 12.074 4.57014C12.3479 4.58211 12.6206 4.52793 12.869 4.41219C13.2549 4.23702 13.692 4.21168 14.0955 4.34108C14.499 4.47049 14.8399 4.74538 15.0518 5.11226C15.2638 5.47915 15.3316 5.91177 15.2422 6.32594C15.1528 6.7401 14.9125 7.10618 14.568 7.35292C14.3437 7.5103 14.1606 7.7194 14.0342 7.96252C13.9078 8.20563 13.8418 8.47562 13.8418 8.74963C13.8418 9.02365 13.9078 9.29363 14.0342 9.53675C14.1606 9.77987 14.3437 9.98896 14.568 10.1464C14.9125 10.3931 15.1528 10.7592 15.2422 11.1733C15.3316 11.5875 15.2638 12.0201 15.0518 12.387C14.8399 12.7539 14.499 13.0288 14.0955 13.1582C13.692 13.2876 13.2549 13.2622 12.869 13.0871C12.6206 12.9713 12.3479 12.9172 12.074 12.9291C11.8002 12.9411 11.5333 13.0189 11.2958 13.1559C11.0584 13.2928 10.8575 13.485 10.7101 13.7161C10.5627 13.9472 10.4731 14.2104 10.4489 14.4834C10.4088 14.9061 10.2124 15.2986 9.89834 15.5843C9.58424 15.8699 9.17492 16.0282 8.75034 16.0282C8.32577 16.0282 7.91645 15.8699 7.60234 15.5843C7.28824 15.2986 7.09192 14.9061 7.05175 14.4834C7.02765 14.2103 6.93807 13.947 6.79061 13.7158C6.64315 13.4847 6.44215 13.2924 6.20463 13.1554C5.96711 13.0184 5.70007 12.9407 5.42613 12.9288C5.15219 12.9169 4.87942 12.9712 4.63092 13.0871C4.24511 13.2622 3.80792 13.2876 3.40446 13.1582C3.00099 13.0288 2.6601 12.7539 2.44814 12.387C2.23618 12.0201 2.16831 11.5875 2.25774 11.1733C2.34717 10.7592 2.5875 10.3931 2.93196 10.1464C3.15626 9.98896 3.33936 9.77987 3.46577 9.53675C3.59218 9.29363 3.65817 9.02365 3.65817 8.74963C3.65817 8.47562 3.59218 8.20563 3.46577 7.96252C3.33936 7.7194 3.15626 7.5103 2.93196 7.35292C2.58798 7.10605 2.34808 6.74012 2.25886 6.32624C2.16965 5.91235 2.2375 5.48008 2.44924 5.11343C2.66097 4.74679 3.00146 4.47196 3.40452 4.34236C3.80759 4.21276 4.24445 4.23765 4.63019 4.41219C4.87866 4.52793 5.15135 4.58211 5.4252 4.57014C5.69904 4.55817 5.96597 4.4804 6.20339 4.34341C6.44081 4.20642 6.64173 4.01425 6.78915 3.78316C6.93657 3.55207 7.02614 3.28887 7.05029 3.01583" stroke="#1A1D2E" stroke-width="1.45833" stroke-linecap="round" stroke-linejoin="round"/>
<path d="M8.75 10.9375C9.95812 10.9375 10.9375 9.95812 10.9375 8.75C10.9375 7.54188 9.95812 6.5625 8.75 6.5625C7.54188 6.5625 6.5625 7.54188 6.5625 8.75C6.5625 9.95812 7.54188 10.9375 8.75 10.9375Z" stroke="#1A1D2E" stroke-width="1.45833" stroke-linecap="round" stroke-linejoin="round"/>
</svg>
