<svg width="18" height="18" viewBox="0 0 18 18" fill="none" xmlns="http://www.w3.org/2000/svg">
<path d="M11.6666 15.3125V13.8542C11.6666 13.0806 11.3594 12.3388 10.8124 11.7918C10.2654 11.2448 9.52353 10.9375 8.74998 10.9375H4.37498C3.60143 10.9375 2.85957 11.2448 2.31258 11.7918C1.7656 12.3388 1.45831 13.0806 1.45831 13.8542V15.3125" stroke="#1A1D2E" stroke-width="1.45833" stroke-linecap="round" stroke-linejoin="round"/>
<path d="M11.6667 2.28083C12.2921 2.44297 12.846 2.80821 13.2415 3.31921C13.6369 3.83021 13.8514 4.45804 13.8514 5.10416C13.8514 5.75029 13.6369 6.37812 13.2415 6.88912C12.846 7.40012 12.2921 7.76535 11.6667 7.9275" stroke="#1A1D2E" stroke-width="1.45833" stroke-linecap="round" stroke-linejoin="round"/>
<path d="M16.0417 15.3125V13.8542C16.0412 13.2079 15.8261 12.5801 15.4302 12.0694C15.0343 11.5586 14.4799 11.1938 13.8542 11.0323" stroke="#1A1D2E" stroke-width="1.45833" stroke-linecap="round" stroke-linejoin="round"/>
<path d="M6.56248 8.02083C8.17331 8.02083 9.47915 6.715 9.47915 5.10417C9.47915 3.49334 8.17331 2.1875 6.56248 2.1875C4.95165 2.1875 3.64581 3.49334 3.64581 5.10417C3.64581 6.715 4.95165 8.02083 6.56248 8.02083Z" stroke="#1A1D2E" stroke-width="1.45833" stroke-linecap="round" stroke-linejoin="round"/>
</svg>
