<svg width="18" height="18" viewBox="0 0 18 18" fill="none" xmlns="http://www.w3.org/2000/svg">
<path d="M13.8542 2.1875H3.64583C2.84042 2.1875 2.1875 2.84042 2.1875 3.64583V13.8542C2.1875 14.6596 2.84042 15.3125 3.64583 15.3125H13.8542C14.6596 15.3125 15.3125 14.6596 15.3125 13.8542V3.64583C15.3125 2.84042 14.6596 2.1875 13.8542 2.1875Z" stroke="#4A5565" stroke-width="1.45833" stroke-linecap="round" stroke-linejoin="round"/>
<path d="M6.56246 8.02085C7.36787 8.02085 8.02079 7.36794 8.02079 6.56252C8.02079 5.75711 7.36787 5.10419 6.56246 5.10419C5.75704 5.10419 5.10413 5.75711 5.10413 6.56252C5.10413 7.36794 5.75704 8.02085 6.56246 8.02085Z" stroke="#4A5565" stroke-width="1.45833" stroke-linecap="round" stroke-linejoin="round"/>
<path d="M15.3125 10.9375L13.0623 8.68729C12.7888 8.4139 12.4179 8.26031 12.0313 8.26031C11.6446 8.26031 11.2737 8.4139 11.0002 8.68729L4.375 15.3125" stroke="#4A5565" stroke-width="1.45833" stroke-linecap="round" stroke-linejoin="round"/>
</svg>
