<svg width="18" height="18" viewBox="0 0 18 18" fill="none" xmlns="http://www.w3.org/2000/svg">
<path d="M9.17733 1.8856C8.90391 1.6121 8.53303 1.4584 8.14629 1.45831H2.91671C2.52993 1.45831 2.159 1.61196 1.88551 1.88545C1.61202 2.15894 1.45837 2.52987 1.45837 2.91665V8.14623C1.45846 8.53297 1.61216 8.90384 1.88567 9.17727L8.23233 15.5239C8.56375 15.8533 9.01199 16.0381 9.47921 16.0381C9.94642 16.0381 10.3947 15.8533 10.7261 15.5239L15.524 10.726C15.8533 10.3946 16.0382 9.94636 16.0382 9.47915C16.0382 9.01193 15.8533 8.56369 15.524 8.23227L9.17733 1.8856Z" stroke="#4A5565" stroke-width="1.45833" stroke-linecap="round" stroke-linejoin="round"/>
<path d="M5.46871 5.83335C5.67006 5.83335 5.83329 5.67012 5.83329 5.46877C5.83329 5.26742 5.67006 5.10419 5.46871 5.10419C5.26736 5.10419 5.10413 5.26742 5.10413 5.46877C5.10413 5.67012 5.26736 5.83335 5.46871 5.83335Z" fill="#4A5565" stroke="#4A5565" stroke-width="1.45833" stroke-linecap="round" stroke-linejoin="round"/>
</svg>
