<svg width="18" height="18" viewBox="0 0 18 18" fill="none" xmlns="http://www.w3.org/2000/svg">
<path d="M8.03319 2.05189C8.06443 1.88462 8.15319 1.73355 8.28409 1.62483C8.41499 1.51612 8.57979 1.4566 8.74996 1.4566C8.92012 1.4566 9.08492 1.51612 9.21582 1.62483C9.34673 1.73355 9.43548 1.88462 9.46673 2.05189L10.2331 6.1046C10.2875 6.39273 10.4275 6.65776 10.6349 6.8651C10.8422 7.07244 11.1072 7.21246 11.3954 7.26689L15.4481 8.03325C15.6153 8.06449 15.7664 8.15325 15.8751 8.28415C15.9839 8.41505 16.0434 8.57986 16.0434 8.75002C16.0434 8.92018 15.9839 9.08498 15.8751 9.21588C15.7664 9.34679 15.6153 9.43555 15.4481 9.46679L11.3954 10.2331C11.1072 10.2876 10.8422 10.4276 10.6349 10.6349C10.4275 10.8423 10.2875 11.1073 10.2331 11.3954L9.46673 15.4481C9.43548 15.6154 9.34673 15.7665 9.21582 15.8752C9.08492 15.9839 8.92012 16.0434 8.74996 16.0434C8.57979 16.0434 8.41499 15.9839 8.28409 15.8752C8.15319 15.7665 8.06443 15.6154 8.03319 15.4481L7.26683 11.3954C7.2124 11.1073 7.07238 10.8423 6.86504 10.6349C6.6577 10.4276 6.39267 10.2876 6.10454 10.2331L2.05183 9.46679C1.88456 9.43555 1.73349 9.34679 1.62477 9.21588C1.51605 9.08498 1.45654 8.92018 1.45654 8.75002C1.45654 8.57986 1.51605 8.41505 1.62477 8.28415C1.73349 8.15325 1.88456 8.06449 2.05183 8.03325L6.10454 7.26689C6.39267 7.21246 6.6577 7.07244 6.86504 6.8651C7.07238 6.65776 7.2124 6.39273 7.26683 6.1046L8.03319 2.05189Z" stroke="#4A5565" stroke-width="1.45833" stroke-linecap="round" stroke-linejoin="round"/>
<path d="M14.5834 1.45831V4.37498" stroke="#4A5565" stroke-width="1.45833" stroke-linecap="round" stroke-linejoin="round"/>
<path d="M16.0417 2.91669H13.125" stroke="#4A5565" stroke-width="1.45833" stroke-linecap="round" stroke-linejoin="round"/>
<path d="M2.91671 16.0417C3.72212 16.0417 4.37504 15.3887 4.37504 14.5833C4.37504 13.7779 3.72212 13.125 2.91671 13.125C2.11129 13.125 1.45837 13.7779 1.45837 14.5833C1.45837 15.3887 2.11129 16.0417 2.91671 16.0417Z" stroke="#4A5565" stroke-width="1.45833" stroke-linecap="round" stroke-linejoin="round"/>
</svg>
