<svg width="18" height="18" viewBox="0 0 18 18" fill="none" xmlns="http://www.w3.org/2000/svg">
<path d="M7.29163 8.02081V12.3958" stroke="#E7000B" stroke-width="1.45833" stroke-linecap="round" stroke-linejoin="round"/>
<path d="M10.2084 8.02081V12.3958" stroke="#E7000B" stroke-width="1.45833" stroke-linecap="round" stroke-linejoin="round"/>
<path d="M13.8542 4.375V14.5833C13.8542 14.9701 13.7006 15.341 13.4271 15.6145C13.1536 15.888 12.7826 16.0417 12.3959 16.0417H5.10421C4.71743 16.0417 4.3465 15.888 4.07301 15.6145C3.79952 15.341 3.64587 14.9701 3.64587 14.5833V4.375" stroke="#E7000B" stroke-width="1.45833" stroke-linecap="round" stroke-linejoin="round"/>
<path d="M2.1875 4.375H15.3125" stroke="#E7000B" stroke-width="1.45833" stroke-linecap="round" stroke-linejoin="round"/>
<path d="M5.83337 4.37498V2.91665C5.83337 2.52987 5.98702 2.15894 6.26051 1.88545C6.534 1.61196 6.90493 1.45831 7.29171 1.45831H10.2084C10.5951 1.45831 10.9661 1.61196 11.2396 1.88545C11.5131 2.15894 11.6667 2.52987 11.6667 2.91665V4.37498" stroke="#E7000B" stroke-width="1.45833" stroke-linecap="round" stroke-linejoin="round"/>
</svg>
