<svg width="14" height="14" viewBox="0 0 14 14" fill="none" xmlns="http://www.w3.org/2000/svg">
<path d="M7.00008 7.58332C7.32225 7.58332 7.58341 7.32216 7.58341 6.99999C7.58341 6.67782 7.32225 6.41666 7.00008 6.41666C6.67792 6.41666 6.41675 6.67782 6.41675 6.99999C6.41675 7.32216 6.67792 7.58332 7.00008 7.58332Z" stroke="black" stroke-width="1.16667" stroke-linecap="round" stroke-linejoin="round"/>
<path d="M7.00008 3.50001C7.32225 3.50001 7.58341 3.23884 7.58341 2.91668C7.58341 2.59451 7.32225 2.33334 7.00008 2.33334C6.67792 2.33334 6.41675 2.59451 6.41675 2.91668C6.41675 3.23884 6.67792 3.50001 7.00008 3.50001Z" stroke="black" stroke-width="1.16667" stroke-linecap="round" stroke-linejoin="round"/>
<path d="M7.00008 11.6667C7.32225 11.6667 7.58341 11.4055 7.58341 11.0833C7.58341 10.7612 7.32225 10.5 7.00008 10.5C6.67792 10.5 6.41675 10.7612 6.41675 11.0833C6.41675 11.4055 6.67792 11.6667 7.00008 11.6667Z" stroke="black" stroke-width="1.16667" stroke-linecap="round" stroke-linejoin="round"/>
</svg>
