<svg width="14" height="14" viewBox="0 0 14 14" fill="none" xmlns="http://www.w3.org/2000/svg">
<path d="M5.25008 7.58335C5.57225 7.58335 5.83341 7.32219 5.83341 7.00002C5.83341 6.67785 5.57225 6.41669 5.25008 6.41669C4.92792 6.41669 4.66675 6.67785 4.66675 7.00002C4.66675 7.32219 4.92792 7.58335 5.25008 7.58335Z" stroke="#99A1AF" stroke-width="1.16667" stroke-linecap="round" stroke-linejoin="round"/>
<path d="M5.25008 3.49998C5.57225 3.49998 5.83341 3.23881 5.83341 2.91665C5.83341 2.59448 5.57225 2.33331 5.25008 2.33331C4.92792 2.33331 4.66675 2.59448 4.66675 2.91665C4.66675 3.23881 4.92792 3.49998 5.25008 3.49998Z" stroke="#99A1AF" stroke-width="1.16667" stroke-linecap="round" stroke-linejoin="round"/>
<path d="M5.25008 11.6667C5.57225 11.6667 5.83341 11.4055 5.83341 11.0833C5.83341 10.7612 5.57225 10.5 5.25008 10.5C4.92792 10.5 4.66675 10.7612 4.66675 11.0833C4.66675 11.4055 4.92792 11.6667 5.25008 11.6667Z" stroke="#99A1AF" stroke-width="1.16667" stroke-linecap="round" stroke-linejoin="round"/>
<path d="M8.75008 7.58335C9.07225 7.58335 9.33341 7.32219 9.33341 7.00002C9.33341 6.67785 9.07225 6.41669 8.75008 6.41669C8.42792 6.41669 8.16675 6.67785 8.16675 7.00002C8.16675 7.32219 8.42792 7.58335 8.75008 7.58335Z" stroke="#99A1AF" stroke-width="1.16667" stroke-linecap="round" stroke-linejoin="round"/>
<path d="M8.75008 3.49998C9.07225 3.49998 9.33341 3.23881 9.33341 2.91665C9.33341 2.59448 9.07225 2.33331 8.75008 2.33331C8.42792 2.33331 8.16675 2.59448 8.16675 2.91665C8.16675 3.23881 8.42792 3.49998 8.75008 3.49998Z" stroke="#99A1AF" stroke-width="1.16667" stroke-linecap="round" stroke-linejoin="round"/>
<path d="M8.75008 11.6667C9.07225 11.6667 9.33341 11.4055 9.33341 11.0833C9.33341 10.7612 9.07225 10.5 8.75008 10.5C8.42792 10.5 8.16675 10.7612 8.16675 11.0833C8.16675 11.4055 8.42792 11.6667 8.75008 11.6667Z" stroke="#99A1AF" stroke-width="1.16667" stroke-linecap="round" stroke-linejoin="round"/>
</svg>
